# xmcd CD database file
# Copyright (C) 1993-1998 Ti Kan
#
# Track frame offsets:
#	150
#	19332
#	35715
#	52405
#	71480
#	88035
#	100100
#	120652
#	139845
#	153685
#
# Disc length: 2299 seconds
#
# Revision: 1
# Processed by: cddbd v1.4b41PL1 Copyright (c) Steve Scherf et al.
# Submitted via: CDmax 1.5
#
DISCID=9108f90a
DTITLE=Ronnie Milsap - The Branson Sound  Vol. 7
DYEAR=1900
DGENRE=
TTITLE0=Lost In The Fifties Tonight (In The Still Of The Night)
TTITLE1=It Was Almost Like A Song
TTITLE2=Smoky Mountain Rain
TTITLE3=Stranger In My House
TTITLE4=Any Day Now
TTITLE5=My Heart
TTITLE6=In Love
TTITLE7=Since I Don't Have You
TTITLE8=Snap Your Fingers
TTITLE9=Prisoner Of The Highway
EXTD=
EXTT0=
EXTT1=
EXTT2=
EXTT3=
EXTT4=
EXTT5=
EXTT6=
EXTT7=
EXTT8=
EXTT9=
PLAYORDER=
